<?xml version="1.0" encoding="UTF-8" standalone="no"?>
<!-- Created with Inkscape (http://www.inkscape.org/) -->

<svg
   xmlns:dc="http://purl.org/dc/elements/1.1/"
   xmlns:cc="http://creativecommons.org/ns#"
   xmlns:rdf="http://www.w3.org/1999/02/22-rdf-syntax-ns#"
   xmlns:svg="http://www.w3.org/2000/svg"
   xmlns="http://www.w3.org/2000/svg"
   xmlns:sodipodi="http://sodipodi.sourceforge.net/DTD/sodipodi-0.dtd"
   xmlns:inkscape="http://www.inkscape.org/namespaces/inkscape"
   width="70mm"
   height="30mm"
   viewBox="0 0 70 30"
   version="1.1"
   id="svg1287"
   inkscape:version="0.92.2 (5c3e80d, 2017-08-06)"
   sodipodi:docname="jeqode.svg">
  <defs
     id="defs1281" />
  <sodipodi:namedview
     id="base"
     pagecolor="#ffffff"
     bordercolor="#666666"
     borderopacity="1.0"
     inkscape:pageopacity="0.0"
     inkscape:pageshadow="2"
     inkscape:zoom="4"
     inkscape:cx="171.32869"
     inkscape:cy="59.898141"
     inkscape:document-units="px"
     inkscape:current-layer="text1090"
     showgrid="false"
     fit-margin-top="-0.3"
     fit-margin-left="0"
     fit-margin-right="0"
     fit-margin-bottom="0"
     inkscape:window-width="1366"
     inkscape:window-height="744"
     inkscape:window-x="0"
     inkscape:window-y="24"
     inkscape:window-maximized="1" />
  <metadata
     id="metadata1284">
    <rdf:RDF>
      <cc:Work
         rdf:about="">
        <dc:format>image/svg+xml</dc:format>
        <dc:type
           rdf:resource="http://purl.org/dc/dcmitype/StillImage" />
        <dc:title></dc:title>
      </cc:Work>
    </rdf:RDF>
  </metadata>
  <g
     inkscape:label="Layer 1"
     inkscape:groupmode="layer"
     id="layer1"
     transform="translate(-44.578075,-89.105953)">
    <g
       aria-label="Jeqode"
       style="font-style:normal;font-variant:normal;font-weight:normal;font-stretch:normal;font-size:31.7816391px;line-height:1.25;font-family:Cookie;-inkscape-font-specification:Cookie;letter-spacing:0px;word-spacing:0px;fill-opacity:1;stroke:none;stroke-width:0.794541"
       id="text1090"
       fill="#00ff00">
      <path
         style="font-style:normal;font-variant:normal;font-weight:normal;font-stretch:normal;font-family:Cookie;-inkscape-font-specification:Cookie;fill-opacity:1;stroke-width:0.79454094"
         d="m 56.186152,89.226047 c -0.466131,0 -0.995793,0.26509 -1.58905,0.794784 -0.593258,0.529694 -0.953428,1.239183 -1.080554,2.129068 -1.928086,0.423756 -3.453514,1.070202 -4.576465,1.9389 -1.122951,0.868698 -1.684652,1.949209 -1.684652,3.241663 0,0.720384 0.317798,1.080554 0.95343,1.080554 0.339005,0 0.614429,-0.148306 0.826306,-0.444934 0.233066,-0.296629 0.34985,-0.710024 0.34985,-1.239718 0,-1.843334 1.345084,-2.99774 4.035929,-3.463871 l -0.667142,10.042787 c -2.690846,1.75858 -4.693228,3.47469 -6.006869,5.14853 -1.313641,1.65264 -1.970422,3.41112 -1.970422,5.27564 0,1.31364 0.392208,2.51093 1.176155,3.59152 0.783948,1.10175 1.843272,1.65261 3.178101,1.65261 1.695021,0 3.018918,-0.65679 3.972367,-1.97042 0.953449,-1.31364 1.504298,-3.22043 1.652612,-5.72059 0.04238,-0.88988 0.148308,-3.58057 0.317811,-8.07237 1.092375,-0.66493 2.160948,-1.20614 3.206005,-1.62264 -0.228272,0.85467 -0.343648,1.83976 -0.343648,2.95744 0,1.14414 0.349835,2.17143 1.049032,3.0825 0.699196,0.88989 1.642253,1.3348 2.828767,1.3348 2.055213,0 3.781653,-1.13321 5.180046,-3.40031 0.105836,-0.1735 0.200487,-0.33796 0.297656,-0.50436 0.102444,1.19793 0.39293,2.11083 0.877466,2.72903 0.635633,0.78395 1.37716,1.17564 2.22467,1.17564 0.868698,0 1.557001,-0.30694 2.065507,-0.92139 0.529695,-0.63563 1.059873,-1.58902 1.589569,-2.86029 l -0.381374,6.73757 c -0.699195,1.9069 -1.04903,3.63386 -1.04903,5.18057 0,0.46612 0.05322,0.88985 0.159163,1.27124 0.105939,0.40256 0.264578,0.60358 0.476456,0.60358 0.317815,0 0.710025,-0.21187 1.176155,-0.63562 0.48732,-0.40257 0.783931,-0.75189 0.889868,-1.04852 0.572071,-1.71621 0.857829,-4.35419 0.857829,-7.91373 1.180103,-2.68473 2.22368,-4.75473 3.13676,-6.23786 -0.01564,0.19204 -0.02532,0.3856 -0.02532,0.58084 0,1.3984 0.349835,2.62721 1.049031,3.6866 0.699196,1.0382 1.705814,1.55701 3.019454,1.55701 1.800958,0 3.188417,-0.55084 4.163052,-1.65261 0.974638,-1.10176 1.53634,-2.54244 1.684652,-4.32222 0.702432,-0.27486 1.319385,-0.57253 1.856735,-0.89142 -0.149117,0.61576 -0.226859,1.26174 -0.226859,1.94045 0,1.71622 0.306946,2.96622 0.92139,3.75016 0.635633,0.78395 1.398347,1.17564 2.288233,1.17564 0.911072,0 1.663452,-0.39169 2.256708,-1.17564 0.59326,-0.78394 1.176145,-1.93886 1.748216,-3.46438 -0.06356,1.16532 -0.0956,2.10838 -0.0956,2.82876 0,0.72039 0.08475,1.16531 0.254249,1.33481 0.402566,0.31782 0.964266,0.47645 1.684644,0.47645 0.988509,0 2.160629,-1.28552 3.515029,-3.84679 0.0985,0.91728 0.43379,1.75542 1.01441,2.51199 0.69919,0.88989 1.64226,1.3348 2.82877,1.3348 2.05521,0 3.78217,-1.13321 5.18056,-3.40031 1.29246,-2.11877 1.93839,-3.70828 1.93839,-4.76767 0,-0.1695 -0.0636,-0.25424 -0.19069,-0.25424 -0.10594,0 -0.21187,0.0847 -0.31781,0.25424 -0.0847,0.1695 -0.21187,0.44493 -0.38137,0.82631 -0.63563,1.48314 -1.39835,2.80756 -2.28824,3.97289 -0.42375,0.55088 -0.88985,0.97461 -1.39836,1.27124 -0.50851,0.29662 -1.08054,0.44493 -1.71617,0.44493 -0.63563,0 -1.19682,-0.29662 -1.68414,-0.88987 -0.46613,-0.61445 -0.74208,-1.33478 -0.82682,-2.16111 1.5467,-0.0424 2.84993,-0.48729 3.90932,-1.3348 1.08057,-0.8687 1.62109,-1.93887 1.62109,-3.210131 0,-0.678008 -0.23305,-1.20767 -0.69918,-1.589051 -0.46613,-0.402567 -1.05935,-0.60358 -1.77974,-0.60358 -1.5467,0 -2.80756,0.593221 -3.7822,1.779736 -0.77542,0.943986 -1.23676,2.249346 -1.39526,3.904146 -0.52867,1.11646 -1.06501,2.05817 -1.60921,2.8019 -0.63563,0.86868 -1.1441,1.3136 -1.52548,1.3348 -0.12713,0 -0.19069,-0.28628 -0.19069,-0.85835 0,-3.09341 0.14831,-5.78409 0.44494,-8.072364 0.14832,-0.593257 0.50848,-1.981231 1.08055,-4.16357 0.21188,-0.84751 0.31781,-1.853611 0.31781,-3.018937 0,-0.995825 -0.15864,-1.493966 -0.47646,-1.493966 -0.31781,0 -0.72035,0.222717 -1.20767,0.66766 -0.466129,0.444943 -0.762741,0.783926 -0.889868,1.016992 -0.275442,0.529694 -0.582904,2.860208 -0.921909,6.991821 -0.826323,-0.593257 -1.621073,-0.889868 -2.383832,-0.889868 -1.567895,0 -2.839085,0.656781 -3.81372,1.970422 -0.326044,0.449214 -0.591606,0.92377 -0.806154,1.42006 l -0.473874,0.29611 c -0.317815,0.19068 -0.900703,0.42374 -1.748213,0.69918 -0.02119,-1.39839 -0.381357,-2.532121 -1.080553,-3.400819 -0.699196,-0.868698 -1.461911,-1.302763 -2.288233,-1.302763 -0.805135,0 -1.504289,0.211864 -2.097546,0.63562 -1.31364,0 -2.394153,0.624743 -3.241664,1.874821 -0.334793,0.506481 -0.598218,1.027861 -0.797367,1.562171 -0.418232,0.61362 -0.975635,1.55026 -1.67845,2.82412 -0.911074,1.67383 -1.504294,2.73316 -1.779736,3.1781 0.02119,-0.31782 0.0739,-1.34562 0.158647,-3.08302 0.08475,-1.75858 0.190682,-2.84994 0.317809,-3.2737 0.148315,-0.27544 0.29662,-0.70951 0.444934,-1.302756 0.148315,-0.614445 0.222727,-1.016988 0.222727,-1.207678 0,-0.805135 -0.159158,-1.207678 -0.476975,-1.207678 -0.46613,0 -1.196806,0.539997 -2.192631,1.620573 -0.826323,-0.868698 -1.5787,-1.302763 -2.256708,-1.302763 -1.567895,0 -2.839085,0.656781 -3.813722,1.970422 -0.79221,1.09148 -1.25044,2.3239 -1.384412,3.69331 -0.462014,0.86663 -0.97418,1.66977 -1.538407,2.40864 -0.423755,0.55088 -0.889858,0.97461 -1.398364,1.27124 -0.508507,0.29662 -1.080542,0.44493 -1.716174,0.44493 -0.635633,0 -1.197333,-0.29662 -1.684652,-0.88987 -0.466131,-0.61445 -0.741556,-1.33478 -0.826306,-2.16111 1.546706,-0.0424 2.849934,-0.48729 3.909322,-1.3348 1.080576,-0.8687 1.620573,-1.93887 1.620573,-3.210131 0,-0.678008 -0.233052,-1.20767 -0.699182,-1.589051 -0.466131,-0.402567 -1.059353,-0.60358 -1.779737,-0.60358 -1.546706,0 -2.807561,0.593221 -3.782198,1.779736 -0.292835,0.356495 -0.540323,0.764786 -0.745174,1.222656 -0.344773,0.0793 -0.777697,0.21738 -1.3224,0.42995 -0.84751,0.31782 -1.589037,0.6568 -2.22467,1.01699 0,-0.14831 0.15864,-3.188822 0.476457,-9.121398 1.461955,-0.402568 2.193147,-1.122909 2.193147,-2.161109 0,-0.444943 -0.148305,-0.794262 -0.444934,-1.048515 -0.27544,-0.275441 -0.656797,-0.413411 -1.144116,-0.413411 z m 0.285771,1.080554 c 0.211877,0 0.31781,0.169492 0.31781,0.508496 0,0.38138 -0.381357,0.688842 -1.144116,0.921908 0.08475,-0.95345 0.360175,-1.430404 0.826306,-1.430404 z m 28.728996,7.945251 c 0.678008,0 1.165297,0.42373 1.461926,1.271241 0.317818,0.847507 0.497644,1.790557 0.540017,2.828757 h -0.38137 c -0.720384,0 -1.355979,-0.2439 -1.906863,-0.73122 -0.529693,-0.48732 -0.794266,-1.12291 -0.794266,-1.906851 0,-0.360191 0.09508,-0.688324 0.285772,-0.984953 0.19069,-0.317817 0.455779,-0.476974 0.794784,-0.476974 z M 62.830708,98.53814 c 0.614444,0 0.92139,0.47644 0.92139,1.429884 0,0.953446 -0.296611,1.727016 -0.889868,2.320266 -0.572069,0.59326 -1.483089,0.9958 -2.733166,1.20768 0.04237,-1.25008 0.3178,-2.38381 0.826306,-3.40083 0.508506,-1.038189 1.133766,-1.557 1.875338,-1.557 z m 45.437532,0 c 0.61445,0 0.92191,0.47644 0.92191,1.429884 0,0.953446 -0.29661,1.727016 -0.88987,2.320266 -0.57207,0.59326 -1.48361,0.9958 -2.73368,1.20768 0.0424,-1.25008 0.31832,-2.38381 0.82682,-3.40083 0.50851,-1.038189 1.13326,-1.557 1.87482,-1.557 z m -35.967827,0.127124 c 0.317817,0 0.699174,0.127119 1.144116,0.381372 0.466133,0.233065 0.826302,0.497638 1.080556,0.794267 l -0.254249,2.733677 c -0.635632,1.69502 -1.176147,2.90265 -1.621089,3.62303 -0.444944,0.72039 -0.921382,1.08056 -1.429888,1.08056 -0.508505,0 -0.943087,-0.37102 -1.303279,-1.1126 -0.339005,-0.76276 -0.508496,-1.73734 -0.508496,-2.92385 0,-1.2077 0.328649,-2.26703 0.985469,-3.1781 0.678009,-0.932254 1.313603,-1.398356 1.90686,-1.398356 z m 23.587707,0 c 1.038201,0 1.864992,0.275424 2.479437,0.826306 0,0.211877 -0.05323,0.90017 -0.159163,2.0655 -1.228892,3.81379 -2.320253,5.7211 -3.273703,5.7211 -0.46613,0 -0.857821,-0.38136 -1.175639,-1.14412 -0.29663,-0.76276 -0.444934,-1.73734 -0.444934,-2.92385 0,-1.2077 0.285758,-2.26755 0.85783,-3.17862 0.572068,-0.911067 1.144103,-1.366316 1.716172,-1.366316 z m -13.007475,0.31781 c -0.233064,0.508506 -0.349332,1.112566 -0.349332,1.811766 0,0.6992 0.338984,1.34512 1.016992,1.93838 0.678008,0.57207 1.504281,0.85835 2.478918,0.85835 l 1.144117,-0.0636 c -0.08475,1.12294 -0.381363,2.07634 -0.889868,2.86029 -0.508505,0.76276 -1.218512,1.14411 -2.129586,1.14411 -0.911074,0 -1.578189,-0.45576 -2.001943,-1.36684 -0.423757,-0.93226 -0.635622,-1.90684 -0.635622,-2.92385 0,-2.11877 0.455252,-3.538261 1.366324,-4.258646 z m -30.222443,5.847696 c -0.04237,0.67801 -0.116269,1.81175 -0.222209,3.40083 -0.08475,1.58908 -0.190683,3.1884 -0.31781,4.79867 -0.254253,3.19935 -1.101713,4.79919 -2.54248,4.79919 -0.635633,0 -1.154961,-0.29661 -1.557528,-0.88987 -0.614445,-0.95344 -0.921391,-2.33057 -0.921391,-4.13153 0,-1.86452 0.582371,-3.45351 1.747697,-4.76715 0.614446,-0.65682 1.186481,-1.19734 1.716175,-1.62109 0.529694,-0.44495 1.228848,-0.9746 2.097546,-1.58905 z"
         id="path1861"
         inkscape:connector-curvature="0" />
    </g>
  </g>
</svg>
